<svg width="316" height="148" viewBox="0 0 316 148" fill="none" xmlns="http://www.w3.org/2000/svg">
<g clip-path="url(#clip0_12_85)">
<path d="M37.8849 141.039C23.8788 144.776 12.4254 139.088 8.1011 126.233L18.9534 123.337C21.3599 129.75 27.4823 132.587 35.0883 130.558C43.2507 128.38 47.1583 123.661 45.6734 118.096C44.2874 112.901 39.5318 111.09 28.605 112.217C14.005 113.728 5.05015 109.957 2.17931 99.1976C-0.815272 87.9742 6.43085 77.8934 19.7876 74.3296C33.0516 70.7906 43.7999 76.0701 48.3591 87.5715L37.414 90.4919C34.6675 84.667 29.3305 82.9115 22.3739 84.7677C15.2318 86.6733 11.7137 90.9902 13.0749 96.0917C14.4113 101.1 18.3692 102.528 29.5991 101.42C44.5948 99.9028 53.8589 104.088 56.7545 114.94C59.947 126.906 52.1691 137.228 37.8849 141.039ZM73.014 130.672L55.69 65.7438L65.9858 62.9967L83.3098 127.925L73.014 130.672ZM119.863 119.166C105.3 123.051 92.3193 114.989 88.3842 100.241C84.3997 85.3078 91.8742 71.9866 106.251 68.1506C113.115 66.3192 119.695 67.1469 125.075 70.1825L123.751 64.4749L133.49 61.8763L146.607 111.036L136.868 113.635L135.148 107.934C132.02 113.339 126.727 117.334 119.863 119.166ZM98.8656 97.4448C101.365 106.813 109.59 111.573 118.588 109.173C127.678 106.748 132.438 98.5223 129.939 89.154C127.439 79.7857 119.214 75.0253 110.124 77.4506C101.126 79.8513 96.3659 88.0765 98.8656 97.4448ZM189.027 100.712C182.07 102.568 175.373 101.672 169.968 98.5439L171.342 104.437L161.602 107.036L144.278 42.107L154.574 39.3599L160.242 60.6008C163.419 55.3811 168.644 51.5031 175.415 49.6964C189.792 45.8604 202.842 53.8049 206.801 68.6457C210.712 83.301 203.59 96.8262 189.027 100.712ZM165.154 79.7578C167.654 89.1261 175.879 93.8865 185.062 91.4364C194.152 89.0111 198.912 80.7858 196.413 71.4175C193.913 62.0493 185.688 57.2888 176.598 59.7142C167.415 62.1643 162.655 70.3896 165.154 79.7578ZM247.522 85.1043C232.31 89.163 218.705 81.367 214.745 66.5262C210.785 51.6854 218.699 38.1477 233.91 34.089C249.03 30.0549 262.728 37.8262 266.688 52.667C270.648 67.5078 262.641 81.0702 247.522 85.1043ZM225.226 63.7296C227.701 73.0051 235.951 77.8583 244.948 75.4577C253.946 73.0571 258.681 64.7391 256.206 55.4636C253.732 46.1881 245.482 41.3349 236.484 43.7355C227.487 46.1361 222.751 54.4541 225.226 63.7296ZM289.278 51.4087C287.397 44.3593 288.677 39.8449 294.013 34.1487C299.052 28.8299 300.399 25.6883 299.212 21.236C297.628 15.2997 292.581 12.7712 285.81 14.5778C278.668 16.4835 275.843 21.9072 277.847 29.4203L267.273 32.2417C263.635 18.6067 269.749 7.63557 283.013 4.09651C296.37 0.532714 306.865 5.97926 310.107 18.1302C312.137 25.7361 310.499 31.1411 304.062 37.9257C300.055 42.2736 299.122 45.1059 300.31 49.5582L300.78 51.3205L290.021 54.1913L289.278 51.4087ZM292.143 66.2435C291.153 62.5333 293.15 59.2184 296.861 58.2285C300.571 57.2385 303.954 59.118 304.944 62.8282C305.909 66.4456 303.937 69.8532 300.226 70.8432C296.516 71.8331 293.109 69.8609 292.143 66.2435Z" fill="white"/>
</g>
<defs>
<clipPath id="clip0_12_85">
<rect width="316" height="148" fill="white"/>
</clipPath>
</defs>
</svg>
